<svg width="32" height="32" viewBox="0 0 32 32" fill="none" xmlns="http://www.w3.org/2000/svg">
<path d="M28.5714 0H3.42857C2.51926 0 1.64719 0.361224 1.00421 1.00421C0.361223 1.64719 0 2.51926 0 3.42857L0 28.5714C0 29.4807 0.361223 30.3528 1.00421 30.9958C1.64719 31.6388 2.51926 32 3.42857 32H13.2321V21.1207H8.73214V16H13.2321V12.0971C13.2321 7.65786 15.875 5.20571 19.9229 5.20571C21.8614 5.20571 23.8886 5.55143 23.8886 5.55143V9.90857H21.655C19.4543 9.90857 18.7679 11.2743 18.7679 12.675V16H23.6807L22.895 21.1207H18.7679V32H28.5714C29.4807 32 30.3528 31.6388 30.9958 30.9958C31.6388 30.3528 32 29.4807 32 28.5714V3.42857C32 2.51926 31.6388 1.64719 30.9958 1.00421C30.3528 0.361224 29.4807 0 28.5714 0Z" fill="#00629B"/>
</svg>
