<svg width="198" height="64" viewBox="0 0 198 64" fill="none" xmlns="http://www.w3.org/2000/svg">
<path d="M60.2161 16.7707C64.4366 16.7707 67.8579 13.3053 67.8579 9.03037C67.8579 4.75548 64.4366 1.29 60.2161 1.29C55.9957 1.29 52.5744 4.75548 52.5744 9.03037C52.5744 13.3053 55.9957 16.7707 60.2161 16.7707Z" fill="url(#paint0_linear_14_77)"/>
<path d="M8.03282 63.9321C7.3686 63.1419 16.9407 56.3058 22.7962 47.0325C24.1461 44.8944 25.5541 43.1935 28.37 39.7895C31.1494 36.4328 31.9405 35.8278 33.0389 35.5651C36.8093 34.6694 41.8909 38.3641 41.6372 40.6959C41.6275 40.7684 41.6139 40.8402 41.5964 40.9112C41.476 41.2837 41.0698 41.639 39.8294 42.6509C37.6799 44.4078 35.7581 45.9947 33.0497 47.9325C31.0699 49.3061 28.2754 51.2439 24.9049 53.5219C14.0194 60.8855 8.55732 64.5543 8.03282 63.9321Z" fill="url(#paint1_linear_14_77)"/>
<path d="M29.2815 33.0008C29.1289 32.6455 28.297 30.6173 29.131 28.4793C29.7587 26.8709 31.2032 25.452 32.7466 25.0106C38.3678 23.4044 47.4175 31.6077 51.7274 40.4009C52.196 41.3569 52.5679 42.2332 52.8581 42.9847C53.4313 44.4286 53.5761 46.0076 53.2751 47.532C53.2429 47.6913 53.2042 47.855 53.159 48.0186C52.1573 51.6616 44.0126 54.4779 42.6132 54.958C32.7122 58.3104 23.0369 59.8455 22.88 59.1845C22.8435 59.0274 23.368 58.881 26.9191 57.053C26.9191 57.053 28.4818 56.3274 30.1865 55.3305C35.2186 52.4001 35.4572 50.9726 39.8273 48.8411C43.4816 47.0562 45.0616 47.2112 45.2507 46.126C45.7258 43.3873 36.8931 38.6203 34.8553 37.5136C32.3984 36.2089 30.2724 35.311 29.2815 33.0008Z" fill="url(#paint2_linear_14_77)"/>
<path d="M26.3752 23.8609C25.7304 23.8221 25.3241 18.8915 25.653 14.172C25.9518 9.90453 26.1431 7.53613 27.8197 5.05361C28.3099 4.32802 30.3821 1.24479 34.1761 0.27805C41.5448 -1.59729 47.2885 6.58877 48.0409 7.6567C49.5133 9.75597 49.5219 11.0457 49.3306 11.8531C48.999 12.8614 48.3369 13.7279 47.4519 14.3119C46.2245 15.1086 45.3582 15.6856 43.4085 13.8813C43.2666 13.75 42.7314 13.2354 42.2198 12.7122C42.0199 12.4969 41.8995 12.3784 41.82 12.2815C41.3492 11.7691 41.0311 11.3665 40.9601 11.2696C40.1283 10.2296 39.0621 8.88396 37.6369 8.23158C37.351 8.10024 36.0827 7.5189 34.7479 7.80096C32.7896 8.21004 31.6782 10.2706 30.8485 11.9973C27.5897 18.7968 27.0437 23.8996 26.3752 23.8609Z" fill="url(#paint3_linear_14_77)"/>
<path d="M42.9485 18.1487C45.743 15.2937 47.7141 14.5961 48.8341 14.3248C50.1904 13.9954 51.0266 14.1095 51.3147 14.172C53.9329 14.6413 55.2291 17.0097 55.343 17.2251C55.6665 17.845 55.8762 18.5181 55.9621 19.2124C55.9621 20.7884 55.5708 23.3614 52.2368 27.7429C50.227 30.3848 49.2274 31.7068 48.1376 31.7089C46.6651 31.7089 46.3943 30.1242 43.4085 27.8334C40.5689 25.6544 39.2792 25.4779 38.8944 24.1731C38.3699 22.4032 40.3067 20.8509 42.9485 18.1487Z" fill="url(#paint4_linear_14_77)"/>
<path d="M82.9221 18.1466C83.8873 18.6116 82.0193 25.3185 78.4445 30.8778C76.6496 33.6768 75.2696 34.8589 73.967 35.6512C73.8831 35.7029 73.7972 35.7545 73.7112 35.8019C69.5496 38.1918 64.3218 37.4727 60.8137 34.2043C59.094 32.5981 57.3743 30.2017 56.1641 26.6297C56.1061 26.4553 56.0631 26.3197 56.033 26.2293C55.2549 23.7855 55.631 22.5518 56.0459 21.8348C56.1233 21.7013 56.9509 20.3276 58.5717 20.052C60.2913 19.7592 61.8197 20.8788 62.3012 21.6776C62.4022 21.8434 62.7548 22.4936 63.0858 23.1503C63.2148 23.4044 63.3007 23.5637 63.3416 23.6714C63.6382 24.3001 63.8209 24.7802 63.8661 24.8965C64.3497 26.1388 64.9667 27.7407 66.1296 28.7914C66.3639 29.0068 67.4 29.9369 68.7564 30.0704C70.7748 30.2685 73.7305 27.2348 73.7305 27.2348C79.5193 21.0123 82.4256 17.9054 82.9221 18.1466Z" fill="url(#paint5_linear_14_77)"/>
<path d="M99.0946 32.78C96.8413 32.78 95.1213 32.1533 93.9346 30.9C92.7613 29.6467 92.1746 27.8667 92.1746 25.56C92.1746 24.4133 92.3546 23.3933 92.7146 22.5C93.0746 21.5933 93.5679 20.8333 94.1946 20.22C94.8213 19.5933 95.5679 19.12 96.4346 18.8C97.3013 18.48 98.2413 18.32 99.2546 18.32C99.8413 18.32 100.375 18.3667 100.855 18.46C101.335 18.54 101.755 18.64 102.115 18.76C102.475 18.8667 102.775 18.98 103.015 19.1C103.255 19.22 103.428 19.3133 103.535 19.38L102.635 21.9C102.208 21.6733 101.708 21.48 101.135 21.32C100.575 21.16 99.9346 21.08 99.2146 21.08C98.7346 21.08 98.2613 21.16 97.7946 21.32C97.3413 21.48 96.9346 21.74 96.5746 22.1C96.2279 22.4467 95.9479 22.9 95.7346 23.46C95.5213 24.02 95.4146 24.7 95.4146 25.5C95.4146 26.14 95.4813 26.74 95.6146 27.3C95.7613 27.8467 95.9879 28.32 96.2946 28.72C96.6146 29.12 97.0279 29.44 97.5346 29.68C98.0413 29.9067 98.6546 30.02 99.3746 30.02C99.8279 30.02 100.235 29.9933 100.595 29.94C100.955 29.8867 101.275 29.8267 101.555 29.76C101.835 29.68 102.081 29.5933 102.295 29.5C102.508 29.4067 102.701 29.32 102.875 29.24L103.735 31.74C103.295 32.0067 102.675 32.2467 101.875 32.46C101.075 32.6733 100.148 32.78 99.0946 32.78ZM107.856 25.56C107.856 26.24 107.936 26.8533 108.096 27.4C108.269 27.9467 108.509 28.42 108.816 28.82C109.136 29.2067 109.522 29.5067 109.976 29.72C110.429 29.9333 110.949 30.04 111.536 30.04C112.109 30.04 112.622 29.9333 113.076 29.72C113.542 29.5067 113.929 29.2067 114.236 28.82C114.556 28.42 114.796 27.9467 114.956 27.4C115.129 26.8533 115.216 26.24 115.216 25.56C115.216 24.88 115.129 24.2667 114.956 23.72C114.796 23.16 114.556 22.6867 114.236 22.3C113.929 21.9 113.542 21.5933 113.076 21.38C112.622 21.1667 112.109 21.06 111.536 21.06C110.949 21.06 110.429 21.1733 109.976 21.4C109.522 21.6133 109.136 21.92 108.816 22.32C108.509 22.7067 108.269 23.18 108.096 23.74C107.936 24.2867 107.856 24.8933 107.856 25.56ZM118.436 25.56C118.436 26.7467 118.256 27.7933 117.896 28.7C117.549 29.5933 117.069 30.3467 116.456 30.96C115.842 31.56 115.109 32.0133 114.256 32.32C113.416 32.6267 112.509 32.78 111.536 32.78C110.589 32.78 109.696 32.6267 108.856 32.32C108.016 32.0133 107.282 31.56 106.656 30.96C106.029 30.3467 105.536 29.5933 105.176 28.7C104.816 27.7933 104.636 26.7467 104.636 25.56C104.636 24.3733 104.822 23.3333 105.196 22.44C105.569 21.5333 106.069 20.7733 106.696 20.16C107.336 19.5467 108.069 19.0867 108.896 18.78C109.736 18.4733 110.616 18.32 111.536 18.32C112.482 18.32 113.376 18.4733 114.216 18.78C115.056 19.0867 115.789 19.5467 116.416 20.16C117.042 20.7733 117.536 21.5333 117.896 22.44C118.256 23.3333 118.436 24.3733 118.436 25.56ZM123.656 25.56C123.656 26.24 123.736 26.8533 123.896 27.4C124.07 27.9467 124.31 28.42 124.616 28.82C124.936 29.2067 125.323 29.5067 125.776 29.72C126.23 29.9333 126.75 30.04 127.336 30.04C127.91 30.04 128.423 29.9333 128.876 29.72C129.343 29.5067 129.73 29.2067 130.036 28.82C130.356 28.42 130.596 27.9467 130.756 27.4C130.93 26.8533 131.016 26.24 131.016 25.56C131.016 24.88 130.93 24.2667 130.756 23.72C130.596 23.16 130.356 22.6867 130.036 22.3C129.73 21.9 129.343 21.5933 128.876 21.38C128.423 21.1667 127.91 21.06 127.336 21.06C126.75 21.06 126.23 21.1733 125.776 21.4C125.323 21.6133 124.936 21.92 124.616 22.32C124.31 22.7067 124.07 23.18 123.896 23.74C123.736 24.2867 123.656 24.8933 123.656 25.56ZM134.236 25.56C134.236 26.7467 134.056 27.7933 133.696 28.7C133.35 29.5933 132.87 30.3467 132.256 30.96C131.643 31.56 130.91 32.0133 130.056 32.32C129.216 32.6267 128.31 32.78 127.336 32.78C126.39 32.78 125.496 32.6267 124.656 32.32C123.816 32.0133 123.083 31.56 122.456 30.96C121.83 30.3467 121.336 29.5933 120.976 28.7C120.616 27.7933 120.436 26.7467 120.436 25.56C120.436 24.3733 120.623 23.3333 120.996 22.44C121.37 21.5333 121.87 20.7733 122.496 20.16C123.136 19.5467 123.87 19.0867 124.696 18.78C125.536 18.4733 126.416 18.32 127.336 18.32C128.283 18.32 129.176 18.4733 130.016 18.78C130.856 19.0867 131.59 19.5467 132.216 20.16C132.843 20.7733 133.336 21.5333 133.696 22.44C134.056 23.3333 134.236 24.3733 134.236 25.56ZM140.997 18.48C143.064 18.48 144.65 18.8467 145.757 19.58C146.864 20.3 147.417 21.4867 147.417 23.14C147.417 24.8067 146.857 26.0133 145.737 26.76C144.617 27.4933 143.017 27.86 140.937 27.86H139.957V32.5H136.837V18.84C137.517 18.7067 138.237 18.6133 138.997 18.56C139.757 18.5067 140.424 18.48 140.997 18.48ZM141.197 21.14C140.97 21.14 140.744 21.1467 140.517 21.16C140.304 21.1733 140.117 21.1867 139.957 21.2V25.2H140.937C142.017 25.2 142.83 25.0533 143.377 24.76C143.924 24.4667 144.197 23.92 144.197 23.12C144.197 22.7333 144.124 22.4133 143.977 22.16C143.844 21.9067 143.644 21.7067 143.377 21.56C143.124 21.4 142.81 21.2933 142.437 21.24C142.064 21.1733 141.65 21.14 141.197 21.14ZM149.708 32.5V18.64H159.068V21.26H152.828V23.98H158.368V26.54H152.828V29.88H159.528V32.5H149.708ZM165.897 18.48C167.977 18.48 169.57 18.8533 170.677 19.6C171.784 20.3333 172.337 21.48 172.337 23.04C172.337 24.0133 172.11 24.8067 171.657 25.42C171.217 26.02 170.577 26.4933 169.737 26.84C170.017 27.1867 170.31 27.5867 170.617 28.04C170.924 28.48 171.224 28.9467 171.517 29.44C171.824 29.92 172.117 30.4267 172.397 30.96C172.677 31.48 172.937 31.9933 173.177 32.5H169.677C169.424 32.0467 169.164 31.5867 168.897 31.12C168.644 30.6533 168.377 30.2 168.097 29.76C167.83 29.32 167.564 28.9067 167.297 28.52C167.03 28.12 166.764 27.76 166.497 27.44H164.957V32.5H161.837V18.84C162.517 18.7067 163.217 18.6133 163.937 18.56C164.67 18.5067 165.324 18.48 165.897 18.48ZM166.077 21.14C165.85 21.14 165.644 21.1467 165.457 21.16C165.284 21.1733 165.117 21.1867 164.957 21.2V24.96H165.837C167.01 24.96 167.85 24.8133 168.357 24.52C168.864 24.2267 169.117 23.7267 169.117 23.02C169.117 22.34 168.857 21.86 168.337 21.58C167.83 21.2867 167.077 21.14 166.077 21.14ZM185.082 32.5C184.935 32.02 184.769 31.5267 184.582 31.02C184.409 30.5133 184.235 30.0067 184.062 29.5H178.662C178.489 30.0067 178.309 30.5133 178.122 31.02C177.949 31.5267 177.789 32.02 177.642 32.5H174.402C174.922 31.0067 175.415 29.6267 175.882 28.36C176.349 27.0933 176.802 25.9 177.242 24.78C177.695 23.66 178.135 22.6 178.562 21.6C179.002 20.5867 179.455 19.6 179.922 18.64H182.902C183.355 19.6 183.802 20.5867 184.242 21.6C184.682 22.6 185.122 23.66 185.562 24.78C186.015 25.9 186.475 27.0933 186.942 28.36C187.409 29.6267 187.902 31.0067 188.422 32.5H185.082ZM181.342 21.78C181.275 21.98 181.175 22.2533 181.042 22.6C180.909 22.9467 180.755 23.3467 180.582 23.8C180.409 24.2533 180.215 24.7533 180.002 25.3C179.802 25.8467 179.595 26.42 179.382 27.02H183.322C183.109 26.42 182.902 25.8467 182.702 25.3C182.502 24.7533 182.309 24.2533 182.122 23.8C181.949 23.3467 181.795 22.9467 181.662 22.6C181.529 22.2533 181.422 21.98 181.342 21.78Z" fill="#00629B"/>
<path d="M113.147 47.5L115.139 39.184H120.047L119.819 40.156H116.063L115.463 42.664H118.799L118.571 43.612H115.247L114.539 46.528H118.571L118.343 47.5H113.147ZM121.806 46.672C122.054 46.672 122.298 46.648 122.538 46.6C122.786 46.544 123.006 46.456 123.198 46.336C123.39 46.216 123.546 46.06 123.666 45.868C123.786 45.668 123.846 45.424 123.846 45.136C123.846 44.936 123.806 44.764 123.726 44.62C123.654 44.468 123.55 44.336 123.414 44.224C123.286 44.104 123.13 43.996 122.946 43.9C122.77 43.796 122.574 43.688 122.358 43.576C122.174 43.48 121.986 43.376 121.794 43.264C121.61 43.152 121.442 43.016 121.29 42.856C121.146 42.688 121.026 42.492 120.93 42.268C120.842 42.044 120.798 41.776 120.798 41.464C120.798 41.104 120.866 40.772 121.002 40.468C121.146 40.164 121.354 39.904 121.626 39.688C121.898 39.464 122.23 39.292 122.622 39.172C123.022 39.052 123.478 38.992 123.99 38.992C124.23 38.992 124.458 39.012 124.674 39.052C124.89 39.084 125.086 39.128 125.262 39.184C125.446 39.24 125.606 39.3 125.742 39.364C125.878 39.42 125.978 39.472 126.042 39.52L125.502 40.432C125.366 40.32 125.146 40.22 124.842 40.132C124.546 40.036 124.194 39.988 123.786 39.988C123.53 39.988 123.29 40.016 123.066 40.072C122.85 40.12 122.662 40.2 122.502 40.312C122.342 40.424 122.214 40.568 122.118 40.744C122.022 40.912 121.974 41.116 121.974 41.356C121.974 41.564 122.006 41.74 122.07 41.884C122.134 42.02 122.222 42.144 122.334 42.256C122.446 42.36 122.582 42.456 122.742 42.544C122.91 42.632 123.09 42.724 123.282 42.82C123.522 42.94 123.746 43.064 123.954 43.192C124.17 43.312 124.358 43.456 124.518 43.624C124.678 43.792 124.802 43.988 124.89 44.212C124.986 44.436 125.034 44.708 125.034 45.028C125.034 45.468 124.946 45.856 124.77 46.192C124.602 46.52 124.366 46.796 124.062 47.02C123.766 47.236 123.41 47.4 122.994 47.512C122.586 47.624 122.142 47.68 121.662 47.68C121.342 47.68 121.05 47.656 120.786 47.608C120.53 47.568 120.302 47.516 120.102 47.452C119.91 47.388 119.746 47.324 119.61 47.26C119.474 47.188 119.37 47.124 119.298 47.068L119.838 46.12C119.99 46.224 120.23 46.344 120.558 46.48C120.886 46.608 121.302 46.672 121.806 46.672ZM130.13 39.1C131.098 39.1 131.826 39.284 132.314 39.652C132.81 40.02 133.058 40.556 133.058 41.26C133.058 41.804 132.954 42.276 132.746 42.676C132.546 43.068 132.258 43.392 131.882 43.648C131.506 43.904 131.054 44.096 130.526 44.224C129.998 44.344 129.41 44.404 128.762 44.404H127.934L127.19 47.5H126.026L127.994 39.292C128.33 39.212 128.686 39.16 129.062 39.136C129.438 39.112 129.794 39.1 130.13 39.1ZM129.986 40.084C129.418 40.084 129.074 40.1 128.954 40.132L128.162 43.432H128.918C129.254 43.432 129.598 43.404 129.95 43.348C130.302 43.284 130.618 43.176 130.898 43.024C131.178 42.872 131.406 42.664 131.582 42.4C131.766 42.128 131.858 41.78 131.858 41.356C131.858 40.9 131.69 40.576 131.354 40.384C131.018 40.184 130.562 40.084 129.986 40.084ZM138.432 38.992C138.872 38.992 139.276 39.06 139.644 39.196C140.02 39.324 140.34 39.52 140.604 39.784C140.876 40.048 141.084 40.38 141.228 40.78C141.38 41.172 141.456 41.632 141.456 42.16C141.456 42.824 141.352 43.484 141.144 44.14C140.944 44.796 140.644 45.388 140.244 45.916C139.844 46.436 139.344 46.86 138.744 47.188C138.144 47.516 137.444 47.68 136.644 47.68C136.196 47.68 135.788 47.616 135.42 47.488C135.052 47.352 134.732 47.152 134.46 46.888C134.196 46.624 133.988 46.296 133.836 45.904C133.692 45.504 133.62 45.04 133.62 44.512C133.62 43.856 133.72 43.2 133.92 42.544C134.12 41.88 134.42 41.288 134.82 40.768C135.228 40.24 135.732 39.812 136.332 39.484C136.932 39.156 137.632 38.992 138.432 38.992ZM136.764 46.672C137.3 46.672 137.784 46.544 138.216 46.288C138.648 46.024 139.012 45.684 139.308 45.268C139.612 44.852 139.844 44.384 140.004 43.864C140.164 43.344 140.244 42.824 140.244 42.304C140.244 41.592 140.088 41.032 139.776 40.624C139.472 40.208 138.984 40 138.312 40C137.768 40 137.28 40.132 136.848 40.396C136.424 40.652 136.06 40.988 135.756 41.404C135.46 41.82 135.232 42.288 135.072 42.808C134.912 43.328 134.832 43.848 134.832 44.368C134.832 45.08 134.984 45.644 135.288 46.06C135.6 46.468 136.092 46.672 136.764 46.672ZM146.079 39.1C146.967 39.1 147.671 39.28 148.191 39.64C148.711 40 148.971 40.528 148.971 41.224C148.971 41.928 148.763 42.52 148.347 43C147.939 43.472 147.363 43.812 146.619 44.02C146.715 44.188 146.827 44.404 146.955 44.668C147.083 44.924 147.215 45.212 147.351 45.532C147.487 45.844 147.619 46.172 147.747 46.516C147.875 46.852 147.987 47.18 148.083 47.5H146.895C146.783 47.196 146.667 46.888 146.547 46.576C146.427 46.264 146.303 45.964 146.175 45.676C146.055 45.388 145.931 45.12 145.803 44.872C145.683 44.616 145.571 44.392 145.467 44.2C145.363 44.208 145.259 44.216 145.155 44.224C145.051 44.224 144.947 44.224 144.843 44.224H143.919L143.139 47.5H141.975L143.943 39.292C144.279 39.212 144.635 39.16 145.011 39.136C145.387 39.112 145.743 39.1 146.079 39.1ZM145.935 40.084C145.367 40.084 145.023 40.1 144.903 40.132L144.147 43.276H144.855C145.183 43.276 145.519 43.252 145.863 43.204C146.207 43.156 146.519 43.064 146.799 42.928C147.087 42.784 147.319 42.588 147.495 42.34C147.679 42.084 147.771 41.748 147.771 41.332C147.771 40.884 147.599 40.564 147.255 40.372C146.919 40.18 146.479 40.084 145.935 40.084ZM156.363 39.184L156.135 40.156H153.627L151.863 47.5H150.699L152.463 40.156H149.955L150.183 39.184H156.363ZM155.604 47.5L157.596 39.184H162.504L162.276 40.156H158.52L157.92 42.664H161.256L161.028 43.612H157.704L156.996 46.528H161.028L160.8 47.5H155.604ZM164.263 46.672C164.511 46.672 164.755 46.648 164.995 46.6C165.243 46.544 165.463 46.456 165.655 46.336C165.847 46.216 166.003 46.06 166.123 45.868C166.243 45.668 166.303 45.424 166.303 45.136C166.303 44.936 166.263 44.764 166.183 44.62C166.111 44.468 166.007 44.336 165.871 44.224C165.743 44.104 165.587 43.996 165.403 43.9C165.227 43.796 165.031 43.688 164.815 43.576C164.631 43.48 164.443 43.376 164.251 43.264C164.067 43.152 163.899 43.016 163.747 42.856C163.603 42.688 163.483 42.492 163.387 42.268C163.299 42.044 163.255 41.776 163.255 41.464C163.255 41.104 163.323 40.772 163.459 40.468C163.603 40.164 163.811 39.904 164.083 39.688C164.355 39.464 164.687 39.292 165.079 39.172C165.479 39.052 165.935 38.992 166.447 38.992C166.687 38.992 166.915 39.012 167.131 39.052C167.347 39.084 167.543 39.128 167.719 39.184C167.903 39.24 168.063 39.3 168.199 39.364C168.335 39.42 168.435 39.472 168.499 39.52L167.959 40.432C167.823 40.32 167.603 40.22 167.299 40.132C167.003 40.036 166.651 39.988 166.243 39.988C165.987 39.988 165.747 40.016 165.523 40.072C165.307 40.12 165.119 40.2 164.959 40.312C164.799 40.424 164.671 40.568 164.575 40.744C164.479 40.912 164.431 41.116 164.431 41.356C164.431 41.564 164.463 41.74 164.527 41.884C164.591 42.02 164.679 42.144 164.791 42.256C164.903 42.36 165.039 42.456 165.199 42.544C165.367 42.632 165.547 42.724 165.739 42.82C165.979 42.94 166.203 43.064 166.411 43.192C166.627 43.312 166.815 43.456 166.975 43.624C167.135 43.792 167.259 43.988 167.347 44.212C167.443 44.436 167.491 44.708 167.491 45.028C167.491 45.468 167.403 45.856 167.227 46.192C167.059 46.52 166.823 46.796 166.519 47.02C166.223 47.236 165.867 47.4 165.451 47.512C165.043 47.624 164.599 47.68 164.119 47.68C163.799 47.68 163.507 47.656 163.243 47.608C162.987 47.568 162.759 47.516 162.559 47.452C162.367 47.388 162.203 47.324 162.067 47.26C161.931 47.188 161.827 47.124 161.755 47.068L162.295 46.12C162.447 46.224 162.687 46.344 163.015 46.48C163.343 46.608 163.759 46.672 164.263 46.672Z" fill="#E18B22"/>
<defs>
<linearGradient id="paint0_linear_14_77" x1="52.5733" y1="9.0304" x2="67.8617" y2="9.0304" gradientUnits="userSpaceOnUse">
<stop stop-color="#00FF47"/>
<stop offset="0.725" stop-color="#1E9DE8"/>
</linearGradient>
<linearGradient id="paint1_linear_14_77" x1="7.99778" y1="49.714" x2="41.6548" y2="49.714" gradientUnits="userSpaceOnUse">
<stop stop-color="#00FF47"/>
<stop offset="0.725" stop-color="#1E9DE8"/>
</linearGradient>
<linearGradient id="paint2_linear_14_77" x1="22.8763" y1="42.0716" x2="53.4358" y2="42.0716" gradientUnits="userSpaceOnUse">
<stop stop-color="#00FF47"/>
<stop offset="0.725" stop-color="#1E9DE8"/>
</linearGradient>
<linearGradient id="paint3_linear_14_77" x1="25.5347" y1="11.9306" x2="49.4231" y2="11.9306" gradientUnits="userSpaceOnUse">
<stop stop-color="#00FF47"/>
<stop offset="0.725" stop-color="#1E9DE8"/>
</linearGradient>
<linearGradient id="paint4_linear_14_77" x1="38.8072" y1="22.905" x2="55.9664" y2="22.905" gradientUnits="userSpaceOnUse">
<stop stop-color="#00FF47"/>
<stop offset="0.725" stop-color="#1E9DE8"/>
</linearGradient>
<linearGradient id="paint5_linear_14_77" x1="55.5789" y1="27.6735" x2="83.1815" y2="27.6735" gradientUnits="userSpaceOnUse">
<stop stop-color="#00FF47"/>
<stop offset="0.725" stop-color="#1E9DE8"/>
</linearGradient>
</defs>
</svg>
