<svg xmlns="http://www.w3.org/2000/svg" xmlns:xlink="http://www.w3.org/1999/xlink" viewBox="0 0 349.72 297.25"><defs><style>.cls-1{fill:url(#Gradiente_sem_nome_84);}.cls-2{fill:url(#Gradiente_sem_nome_84-2);}.cls-3{fill:url(#Gradiente_sem_nome_84-3);}.cls-4{fill:url(#Gradiente_sem_nome_88);}.cls-5{fill:url(#Gradiente_sem_nome_88-2);}.cls-6{fill:url(#Gradiente_sem_nome_84-4);}</style><linearGradient id="Gradiente_sem_nome_84" x1="207.35" y1="41.94" x2="278.46" y2="41.94" gradientUnits="userSpaceOnUse"><stop offset="0" stop-color="#dff956"/><stop offset="0.13" stop-color="#a7de7b"/><stop offset="0.28" stop-color="#6dc2a3"/><stop offset="0.41" stop-color="#42adbf"/><stop offset="0.51" stop-color="#28a1d1"/><stop offset="0.57" stop-color="#1e9cd7"/><stop offset="0.78" stop-color="#1d9ad5"/><stop offset="0.85" stop-color="#1a93ce"/><stop offset="0.91" stop-color="#1588c3"/><stop offset="0.95" stop-color="#0d77b2"/><stop offset="0.99" stop-color="#03619d"/><stop offset="0.99" stop-color="#005b97"/></linearGradient><linearGradient id="Gradiente_sem_nome_84-2" x1="0" y1="230.9" x2="156.48" y2="230.9" xlink:href="#Gradiente_sem_nome_84"/><linearGradient id="Gradiente_sem_nome_84-3" x1="69.17" y1="195.37" x2="211.3" y2="195.37" xlink:href="#Gradiente_sem_nome_84"/><linearGradient id="Gradiente_sem_nome_88" x1="81.57" y1="55.41" x2="192.7" y2="55.41" gradientUnits="userSpaceOnUse"><stop offset="0" stop-color="#dff956"/><stop offset="0.13" stop-color="#a7de7b"/><stop offset="0.28" stop-color="#6dc2a3"/><stop offset="0.41" stop-color="#42adbf"/><stop offset="0.51" stop-color="#28a1d1"/><stop offset="0.57" stop-color="#1e9cd7"/><stop offset="0.78" stop-color="#1d9ad5"/><stop offset="0.85" stop-color="#1a93cf"/><stop offset="0.91" stop-color="#1588c3"/><stop offset="0.95" stop-color="#0d77b3"/><stop offset="0.96" stop-color="#0a70ac"/><stop offset="0.99" stop-color="#005b97"/></linearGradient><linearGradient id="Gradiente_sem_nome_88-2" x1="143.32" y1="106.4" x2="223.12" y2="106.4" xlink:href="#Gradiente_sem_nome_88"/><linearGradient id="Gradiente_sem_nome_84-4" x1="221.32" y1="128.53" x2="349.72" y2="128.53" xlink:href="#Gradiente_sem_nome_84"/></defs><g id="Camada_2" data-name="Camada 2"><g id="Logo_1" data-name="Logo 1"><ellipse class="cls-1" cx="242.91" cy="41.94" rx="35.55" ry="35.95"/><path class="cls-2" d="M.15,296.93c-3.09-3.67,41.44-35.42,68.68-78.49,6.28-9.93,12.83-17.83,25.93-33.64,12.93-15.59,16.61-18.4,21.72-19.62,17.54-4.16,41.18,13,40,23.83a9.45,9.45,0,0,1-.19,1c-.56,1.73-2.45,3.38-8.22,8.08-10,8.16-18.94,15.53-31.54,24.53h0C107.32,229,94.32,238,78.64,248.58,28,282.78,2.59,299.82.15,296.93Z"/><path class="cls-3" d="M99,153.27c-.71-1.65-4.58-11.07-.7-21,2.92-7.47,9.64-14.06,16.82-16.11,26.15-7.46,68.25,30.64,88.3,71.48,2.18,4.44,3.91,8.51,5.26,12a37.48,37.48,0,0,1,1.94,21.12c-.15.74-.33,1.5-.54,2.26-4.66,16.92-42.55,30-49.06,32.23-46.06,15.57-91.07,22.7-91.8,19.63-.17-.73,2.27-1.41,18.79-9.9,0,0,7.27-3.37,15.2-8,23.41-13.61,24.52-20.24,44.85-30.14,17-8.29,24.35-7.57,25.23-12.61,2.21-12.72-38.88-34.86-48.36-40C113.5,168.17,103.61,164,99,153.27Z"/><path class="cls-4" d="M85.48,110.82c-3-.18-4.89-23.08-3.36-45C83.51,46,84.4,35,92.2,23.47c2.28-3.37,11.92-17.69,29.57-22.18,34.28-8.71,61,29.31,64.5,34.27,6.85,9.75,6.89,15.74,6,19.49a21.87,21.87,0,0,1-8.74,11.42c-5.71,3.7-9.74,6.38-18.81-2-.66-.61-3.15-3-5.53-5.43-.93-1-1.49-1.55-1.86-2-2.19-2.38-3.67-4.25-4-4.7-3.87-4.83-8.83-11.08-15.46-14.11-1.33-.61-7.23-3.31-13.44-2-9.11,1.9-14.28,11.47-18.14,19.49C91.13,87.3,88.59,111,85.48,110.82Z"/><path class="cls-5" d="M162.58,84.29c13-13.26,22.17-16.5,27.38-17.76,6.31-1.53,10.2-1,11.54-.71C213.68,68,219.71,79,220.24,80a27.13,27.13,0,0,1,2.88,9.23h0c0,7.32-1.82,19.27-17.33,39.62-9.35,12.27-14,18.41-19.07,18.42-6.85,0-8.11-7.36-22-18-13.21-10.12-19.21-10.94-21-17C141.28,104.05,150.29,96.84,162.58,84.29Z"/><path class="cls-6" d="M348.54,84.28c4.49,2.16-4.2,33.31-20.83,59.13-8.35,13-14.77,18.49-20.83,22.17-.39.24-.79.48-1.19.7-19.36,11.1-43.68,7.76-60-7.42-8-7.46-16-18.59-21.63-35.18-.27-.81-.47-1.44-.61-1.86-3.62-11.35-1.87-17.08.06-20.41.36-.62,4.21-7,11.75-8.28,8-1.36,15.11,3.84,17.35,7.55.47.77,2.11,3.79,3.65,6.84.6,1.18,1,1.92,1.19,2.42,1.38,2.92,2.23,5.15,2.44,5.69,2.25,5.77,5.12,13.21,10.53,18.09,1.09,1,5.91,5.32,12.22,5.94,9.39.92,23.14-13.17,23.14-13.17C332.71,97.59,346.23,83.16,348.54,84.28Z"/></g></g></svg>